<?xml version="1.0" encoding="UTF-8" standalone="no"?>
<!-- Created with Inkscape (http://www.inkscape.org/) -->

<svg
   version="1.1"
   id="svg1"
   width="195.84"
   height="195.84"
   viewBox="0 0 195.84 195.84"
   sodipodi:docname="bolsa.svg"
   inkscape:version="1.4 (86a8ad7, 2024-10-11)"
   inkscape:export-filename="bolsa.jpg"
   inkscape:export-xdpi="96"
   inkscape:export-ydpi="96"
   xmlns:inkscape="http://www.inkscape.org/namespaces/inkscape"
   xmlns:sodipodi="http://sodipodi.sourceforge.net/DTD/sodipodi-0.dtd"
   xmlns="http://www.w3.org/2000/svg"
   xmlns:svg="http://www.w3.org/2000/svg">
  <defs
     id="defs1" />
  <sodipodi:namedview
     id="namedview1"
     pagecolor="#ffffff"
     bordercolor="#000000"
     borderopacity="0.25"
     inkscape:showpageshadow="2"
     inkscape:pageopacity="0.0"
     inkscape:pagecheckerboard="0"
     inkscape:deskcolor="#d1d1d1"
     showgrid="false"
     inkscape:zoom="1.9966813"
     inkscape:cx="76.126322"
     inkscape:cy="105.42494"
     inkscape:window-width="1366"
     inkscape:window-height="697"
     inkscape:window-x="-8"
     inkscape:window-y="-8"
     inkscape:window-maximized="1"
     inkscape:current-layer="layer9" />
  <g
     inkscape:groupmode="layer"
     inkscape:label="original"
     id="g1"
     style="opacity:0.3631068" />
  <g
     inkscape:groupmode="layer"
     id="layer11"
     inkscape:label="reciclaje" />
  <g
     inkscape:groupmode="layer"
     id="layer8"
     inkscape:label="bolsa1"
     style="fill:#faeec9;fill-opacity:1;stroke-width:0.37795276;stroke-dasharray:none;stroke:#000000;stroke-opacity:1" />
  <g
     inkscape:groupmode="layer"
     id="layer9"
     inkscape:label="agarradero">
    <g
       inkscape:groupmode="layer"
       id="layer12"
       inkscape:label="g4" />
    <g
       id="g3"
       transform="matrix(1.3137521,0,0,1.2583243,-32.438694,-29.222477)">
      <path
         style="fill:#f6e3a7;fill-opacity:1;stroke:#000000;stroke-width:0.377953;stroke-dasharray:none;stroke-opacity:1"
         d="m 44.240987,79.562363 c -0.993037,1.269 -1.514369,2.53801 -1.328029,3.80702 l 4.161157,14.16564 5.400651,18.326787 7.525497,19.12362 c 1.013865,2.78959 2.777733,7.29348 4.957975,12.74908 1.333866,3.78075 2.76822,7.61732 5.577721,12.21786 1.24283,2.12808 2.880482,3.9403 4.957975,5.40065 3.110242,1.72393 6.602167,2.87534 10.712766,3.09874 8.263298,-1.43909 16.52658,-4.07026 24.78987,-7.17136 8.64759,-3.15613 17.55643,-5.65916 25.58669,-10.35862 2.25572,-2.23648 4.46059,-4.49839 6.0204,-7.08283 1.21412,-2.14749 2.19658,-4.37921 2.12484,-6.99428 -0.24705,-3.40622 -1.18661,-6.35077 -2.12484,-9.2962 L 136.31765,111.52358 118.6106,57.605614 c -0.84035,-1.199464 -2.00265,-2.157466 -4.24969,-2.301917 L 97.893358,61.235559 90.899069,44.148254 c -2.283021,-3.304938 -5.336251,-5.155038 -8.676456,-6.463074 -5.229831,-0.142425 -9.58262,0.08443 -12.572007,0.885352 -3.536515,1.446845 -6.274137,2.986724 -9.119132,5.931863 -1.589722,3.381504 -3.513342,6.800724 -3.807016,10.535696 -0.04491,1.12016 0.285071,2.990106 0.708282,5.04651 l 4.603834,13.014682 z"
         id="path1-8"
         sodipodi:nodetypes="cccccccccccccccccccccccccc" />
      <path
         style="opacity:1;fill:#faeec9;fill-opacity:1;stroke:#000000;stroke-width:0.377953;stroke-dasharray:none;stroke-opacity:1"
         d="m 49.837606,77.137597 c -0.99303,1.269 -1.51436,2.53801 -1.32802,3.80702 l 4.16115,14.16564 5.40065,18.326793 7.5255,19.12362 c 1.01387,2.78959 2.77773,7.29348 4.95798,12.74908 1.33386,3.78075 2.76822,7.61732 5.57772,12.21786 1.24283,2.12808 2.88048,3.9403 4.95797,5.40065 3.11024,1.72393 6.60217,2.87534 10.71277,3.09874 8.263304,-1.43909 16.526594,-4.07026 24.789884,-7.17136 8.64759,-3.15613 17.55643,-5.65916 25.58669,-10.35862 2.25572,-2.23648 4.46059,-4.49839 6.0204,-7.08283 1.21412,-2.14749 2.19658,-4.37921 2.12484,-6.99428 -0.24705,-3.40622 -1.18661,-6.35077 -2.12484,-9.2962 l -6.28601,-16.02489 -17.70705,-53.917972 c -0.84035,-1.199464 -2.00265,-2.157466 -4.24969,-2.301917 l -16.46756,5.931862 -6.994294,-17.087305 c -2.28302,-3.304938 -5.33625,-5.155038 -8.67646,-6.463074 -5.22983,-0.142425 -9.58262,0.08443 -12.57201,0.885352 -3.53651,1.446845 -6.27413,2.986724 -9.11913,5.931863 -1.58972,3.381504 -3.51334,6.800724 -3.80701,10.535696 -0.0449,1.12016 0.28507,2.990106 0.70828,5.04651 l 4.60383,13.014682 z"
         id="path1"
         sodipodi:nodetypes="cccccccccccccccccccccccccc" />
      <g
         id="g2">
        <path
           style="fill:#ffffff;fill-opacity:1;stroke:#000000;stroke-width:0.377953;stroke-dasharray:none;stroke-opacity:1"
           d="m 75.115735,68.352184 -4.75789,-17.529087 c 0.40687,-2.859914 2.1516,-5.654717 6.04035,-7.851417 -0.20137,0.704801 6.71379,-2.686283 10.61228,-1.100939 1.55114,0.63078 2.83105,1.894429 3.88144,3.69363 l 6.00997,15.525763 z"
           id="path2-2"
           sodipodi:nodetypes="cccsccc" />
      </g>
      <rect
         style="opacity:1;fill:#ffffff;fill-opacity:1;stroke:#b6cd8d;stroke-width:7.18159e-07;stroke-dasharray:none;stroke-opacity:1"
         id="rect8"
         width="54.085915"
         height="49.402534"
         x="76.510078"
         y="87.387978"
         ry="23.650148"
         rx="0" />
      <path
         style="opacity:1;fill:#556b2f;fill-opacity:1;stroke:#3f4f23;stroke-width:0.447203;stroke-dasharray:none;stroke-opacity:1"
         d="m 90.476994,104.62346 c 1.653871,-0.24407 3.349503,-0.36849 5.145721,-0.20473 -0.885601,-2.12053 0.173272,-5.333716 3.001675,-7.24068 1.97844,-0.979814 5.0531,1.817621 5.89614,3.96492 l -1.82244,1.02367 7.28978,2.76392 1.71523,-6.960976 -2.35845,0.818937 c -1.33858,-1.826952 -2.88113,-3.459113 -4.93131,-4.606536 -4.1271,-0.987053 -4.20359,-0.572936 -5.681742,-0.614202 -1.828607,0.400126 -3.632114,0.850629 -5.252929,2.763917 -1.872888,2.635771 -2.985559,5.38322 -3.001675,8.29176 z"
         id="path3"
         sodipodi:nodetypes="cccccccccccc" />
      <path
         style="fill:#556b2f;fill-opacity:1;stroke:#3f4f23;stroke-width:0.447203;stroke-dasharray:none;stroke-opacity:1"
         d="m 113.04914,103.82044 c 0.2556,1.57926 0.38591,3.19841 0.21442,4.91363 2.22068,-0.84566 5.58565,0.16545 7.58268,2.86629 1.02609,1.8892 -1.90347,4.82519 -4.15221,5.6302 l -1.07202,-1.74024 -2.89447,6.96097 7.28978,1.6379 -0.85763,-2.2521 c 1.91325,-1.2782 3.6225,-2.75117 4.82414,-4.70888 1.03367,-3.94096 0.59998,-4.014 0.64321,-5.4255 -0.41904,-1.74611 -0.89082,-3.46827 -2.89448,-5.01598 -2.76026,-1.78842 -5.63749,-2.85091 -8.68342,-2.86629 z"
         id="path3-3"
         sodipodi:nodetypes="cccccccccccc" />
    </g>
    <path
       style="fill:#556b2f;fill-opacity:1;stroke:#3f4f23;stroke-width:0.615239;stroke-dasharray:none;stroke-opacity:1"
       d="m 85.581581,112.57957 c -1.682745,1.92893 -3.401202,3.81656 -3.736692,7.30387 -0.227907,2.66898 0.765645,5.35416 2.90632,7.50394 2.312841,2.08679 5.047296,3.44925 8.303771,4.20222 4.249264,0.25135 8.02638,-0.6351 11.72906,-1.7009 -2.37461,-1.73629 -2.59092,-3.81932 -3.42529,-5.80306 -2.141436,0.60557 -2.255334,1.35623 -6.850618,2.1011 -2.110212,0.40448 -4.358437,0.19802 -5.916435,-1.00053 -2.843946,-3.63935 -0.008,-6.40657 2.802523,-9.00473 l 3.321505,1.70088 -1.037965,-10.20536 -11.106295,2.20115 z"
       id="path4"
       sodipodi:nodetypes="ccccccccccccc" />
  </g>
</svg>
